<?xml version="1.0" encoding="UTF-8" standalone="no"?>
<!-- Created with Inkscape (http://www.inkscape.org/) -->
<svg
   xmlns:dc="http://purl.org/dc/elements/1.1/"
   xmlns:cc="http://web.resource.org/cc/"
   xmlns:rdf="http://www.w3.org/1999/02/22-rdf-syntax-ns#"
   xmlns:svg="http://www.w3.org/2000/svg"
   xmlns="http://www.w3.org/2000/svg"
   xmlns:sodipodi="http://sodipodi.sourceforge.net/DTD/sodipodi-0.dtd"
   xmlns:inkscape="http://www.inkscape.org/namespaces/inkscape"
   width="474"
   height="392"
   id="svg2"
   sodipodi:version="0.32"
   inkscape:version="0.45.1"
   version="1.0"
   sodipodi:docbase="C:\Documents and Settings\Admin\Desktop"
   sodipodi:docname="drawing.svg"
   inkscape:output_extension="org.inkscape.output.svg.inkscape">
  <defs
     id="defs4" />
  <sodipodi:namedview
     id="base"
     pagecolor="#ffffff"
     bordercolor="#666666"
     borderopacity="1.0"
     gridtolerance="10000"
     guidetolerance="10"
     objecttolerance="10"
     inkscape:pageopacity="0.0"
     inkscape:pageshadow="2"
     inkscape:zoom="1"
     inkscape:cx="375"
     inkscape:cy="291.42857"
     inkscape:document-units="px"
     inkscape:current-layer="layer1"
     width="744.09448px"
     height="1052.36px"
     inkscape:window-width="969"
     inkscape:window-height="813"
     inkscape:window-x="22"
     inkscape:window-y="29" />
  <metadata
     id="metadata7">
    <rdf:RDF>
      <cc:Work
         rdf:about="">
        <dc:format>image/svg+xml</dc:format>
        <dc:type
           rdf:resource="http://purl.org/dc/dcmitype/StillImage" />
      </cc:Work>
    </rdf:RDF>
  </metadata>
  <g
     inkscape:label="Layer 1"
     inkscape:groupmode="layer"
     id="layer1"
     transform="translate(-85.85714,-493.50504)">
    <path
       style="fill:#000000"
       d="M 489.10714,872.38626 C 486.5703,871.65377 485.85714,870.90554 485.85714,868.97645 C 485.85714,867.61717 486.75714,865.60504 487.85714,864.50504 C 489.24802,863.11416 489.85714,861.17171 489.85714,858.12716 C 489.85714,855.71933 490.51581,852.17288 491.32084,850.24615 C 492.62368,847.12803 493.31059,846.66534 497.57084,846.03624 C 505.38875,844.8818 513.85714,838.9989 513.85714,834.72232 C 513.85714,832.62117 514.20129,832.3746 516.37312,832.9197 C 518.44472,833.43963 519.06293,833.09397 519.87326,830.96263 C 520.51884,829.26464 520.5188,827.74137 519.87315,826.53496 C 517.2455,821.62515 485.31945,800.53565 466.17537,791.06363 C 457.4597,786.75133 452.87513,780.62186 450.05051,769.50504 C 444.63307,748.18369 442.78196,738.28225 440.71806,719.58634 C 438.68509,701.17056 438.69048,695.99931 440.73919,699.31419 C 441.16451,700.00237 442.3128,708.53934 443.29096,718.28523 C 444.96467,734.96138 448.21104,752.10907 453.00867,769.6152 C 455.48348,778.64559 460.62975,785.42617 467.22192,788.3422 C 475.30514,791.91779 505.92685,810.66455 513.45182,816.64437 C 517.6093,819.94817 521.88738,824.13684 522.95867,825.95254 C 524.8139,829.09694 525.131,829.2299 529.6318,828.75081 C 532.23074,828.47416 534.93226,827.94323 535.63519,827.57097 C 536.57126,827.07525 535.04156,823.15135 529.91853,812.90685 C 519.82116,792.71516 510.25579,782.83097 496.92722,778.81588 C 493.86367,777.89302 489.98341,775.86832 488.30441,774.31653 C 485.25769,771.50066 485.24917,771.46218 483.97405,754.75008 C 483.27135,745.54031 482.11766,728.56342 481.4103,717.02365 C 480.1333,696.191 480.13944,696.01732 482.27609,692.52365 C 486.06534,686.32777 486.8886,683.56937 486.25234,679.20101 C 484.5899,667.78744 479.7556,656.25821 472.73093,646.9541 C 466.57928,638.8063 458.88787,614.13541 458.82152,602.33843 C 458.76097,591.57254 455.00258,579.2665 449.20365,570.8467 C 446.43778,566.83078 444.40419,565.12145 440.25767,563.32718 C 437.30615,562.05 434.88359,560.44254 434.87421,559.75504 C 434.85032,558.00548 435.8434,558.16678 442.08194,560.92575 C 452.66062,565.60415 459.49413,579.42569 460.90873,599.00504 C 461.7589,610.77227 462.08025,612.22239 467.50559,628.77462 C 470.00478,636.39943 472.28686,641.21752 475.32079,645.27462 C 480.7909,652.5895 484.08746,659.1805 486.74357,668.11285 C 489.79591,678.37768 489.55334,684.97845 485.86622,691.98778 L 482.8753,697.67361 L 484.35486,721.4684 C 485.16862,734.55554 486.31745,750.83012 486.90781,757.63412 C 488.12462,771.65797 488.9917,773.33249 496.14278,775.46885 C 507.37571,778.82464 516.68606,785.7258 523.73319,795.91984 C 528.14682,802.30438 536.77367,818.97254 539.17483,825.75504 C 539.51558,826.71754 540.67179,827.50504 541.7442,827.50504 C 544.82711,827.50504 547.94429,833.69381 549.13486,842.17829 C 550.364,850.93765 549.1191,857.66258 545.7658,860.37792 C 544.01067,861.79913 543.87986,862.4346 544.82869,864.93022 C 545.52069,866.7503 545.57963,868.18255 544.98694,868.77524 C 543.81964,869.94254 541.63993,866.23165 542.37441,864.32748 C 542.77959,863.27703 541.03066,863.07105 533.87082,863.32601 L 524.85714,863.64698 L 524.85714,866.57601 L 524.85714,869.50504 L 516.97846,869.50504 C 509.16718,869.50504 509.08915,869.47938 507.85714,866.50504 C 506.65118,863.59359 506.41662,863.50504 499.91013,863.50504 C 494.01489,863.50504 492.91635,863.81311 490.80766,866.05771 C 488.85642,868.13471 488.67111,868.77203 489.81317,869.47787 C 492.32294,871.02899 509.82915,871.7862 531.57473,871.28421 C 549.06332,870.88049 552.85714,871.03464 552.85714,872.14897 C 552.85714,873.2625 547.44669,873.48891 522.60714,873.41485 C 505.96964,873.36525 490.89464,872.90238 489.10714,872.38626 z M 521.85714,866.50504 C 521.85714,865.95504 519.49464,865.51193 516.60714,865.52035 C 512.84869,865.53132 511.7833,865.81107 512.85714,866.50504 C 514.83614,867.78397 521.85714,867.78397 521.85714,866.50504 z M 529.44095,860.50504 C 539.83838,860.50504 540.96305,860.318 543.45505,858.17448 C 545.63617,856.29836 546.25394,854.76527 546.62322,850.31223 C 547.19659,843.39815 545.39757,834.7092 542.82587,831.97176 C 540.94768,829.97251 540.52425,829.93931 532.11376,831.13175 C 527.29762,831.81459 522.66123,832.40292 521.81067,832.43916 C 519.56081,832.53501 519.96274,836.5537 522.55126,839.84385 C 525.49204,843.58172 524.58199,845.50504 519.8726,845.50504 C 515.89263,845.50504 513.16803,843.42906 514.4422,841.36741 C 514.85868,840.69353 513.65992,841.29569 511.77829,842.70555 C 506.64199,846.55405 502.30698,848.50504 498.8921,848.50504 C 496.51301,848.50504 495.37917,849.23182 493.82185,851.75504 C 492.7186,853.54254 491.93772,856.13004 492.08654,857.50504 C 492.34567,859.89905 492.71749,860.031 500.85714,860.61738 C 505.53214,860.95417 511.33245,861.06667 513.74671,860.86738 C 516.16098,860.66809 523.22338,860.50504 529.44095,860.50504 z M 519.53147,841.05309 C 518.33559,839.70452 517.20219,839.04437 517.01281,839.58608 C 516.36149,841.44915 517.79747,843.50504 519.75009,843.50504 C 521.6316,843.50504 521.62331,843.41201 519.53147,841.05309 z M 396.85714,870.50742 C 391.63214,870.14005 386.56964,869.49108 385.60714,869.06527 C 383.25583,868.02504 383.38612,863.88877 385.83628,861.79088 C 387.37194,860.476 387.69005,859.3018 387.25597,856.55066 C 386.88187,854.17975 387.35274,851.48086 388.67718,848.40462 C 390.5396,844.07881 390.93544,843.76616 395.30876,843.16673 C 399.8409,842.54553 407.56661,838.76496 409.79781,836.07653 C 410.63505,835.06772 410.53293,834.59461 409.38266,834.15321 C 407.65682,833.49094 407.28516,830.50504 408.92857,830.50504 C 409.51785,830.50504 409.29285,829.7979 408.42857,828.93361 C 406.28096,826.78601 406.28905,822.07307 408.43893,822.89805 C 409.30891,823.2319 411.00066,823.50504 412.19838,823.50504 C 413.3961,823.50504 414.94954,824.42334 415.65047,825.54572 C 417.33583,828.24441 416.19856,830.09755 414.00786,828.22229 C 411.35321,825.94987 409.85714,825.30964 409.85714,826.44602 C 409.85714,827.02848 410.50558,827.50504 411.29812,827.50504 C 413.62011,827.50504 414.12062,829.38442 412.28697,831.21807 C 410.02299,833.48205 412.31,834.31017 414.74374,832.10766 C 416.69356,830.3431 418.85714,829.98546 418.85714,831.42772 C 418.85714,832.66301 409.31258,840.60075 404.54998,843.32629 C 402.45604,844.5246 399.68035,845.50504 398.38177,845.50504 C 397.08319,845.50504 395.29227,845.78457 394.40194,846.12622 C 392.34852,846.91419 389.85714,851.67331 389.85714,854.80785 C 389.85714,857.10389 390.23157,857.23877 398.33514,857.86166 C 402.99804,858.22007 414.0826,858.21365 422.96749,857.84737 C 442.18676,857.05506 443.78608,856.32257 444.58566,847.9462 C 445.19248,841.58911 443.36001,831.71965 441.11002,829.22683 C 439.29809,827.21934 436.52744,827.21798 421.93916,829.21742 C 418.06494,829.74841 417.60123,829.61432 418.17159,828.12798 C 418.55453,827.13006 416.6133,820.79325 413.45119,812.71903 C 404.56083,790.01812 400.1125,780.52321 394.35596,771.96039 C 387.62961,761.955 385.85714,757.12941 385.85714,748.82215 C 385.85714,742.65307 386.1874,741.79135 393.95304,727.69788 C 398.40579,719.61682 405.09391,708.95504 408.81554,704.00504 C 412.53717,699.05504 416.14657,693.88004 416.83643,692.50504 C 418.53434,689.12085 425.96247,681.50504 427.56535,681.50504 C 429.8241,681.50504 428.96707,683.46962 425.30606,686.68404 C 423.35296,688.39888 421.0473,691.19763 420.18237,692.90348 C 419.31745,694.60934 415.37354,700.28004 411.41814,705.50504 C 403.30386,716.22384 389.34677,741.11351 388.33415,746.67072 C 387.36545,751.98688 390.08964,760.20887 395.46428,768.19043 C 401.82603,777.63788 406.50633,787.27324 414.0753,806.50504 C 417.64691,815.58004 420.84181,823.78472 421.17508,824.73765 C 421.61168,825.98604 422.56022,826.34708 424.56908,826.02952 C 426.10251,825.78711 429.08959,825.31611 431.20702,824.98285 C 434.62364,824.44513 434.97575,824.13093 434.33583,822.19099 C 433.93924,820.98872 433.04382,813.33087 432.34601,805.17356 C 431.18083,791.5526 430.80817,789.83861 427.78019,784.17356 C 422.31658,773.95168 421.0735,771.29778 418.47757,764.31306 L 415.99045,757.62109 L 418.89241,753.61504 C 420.4885,751.41172 422.69687,749.126 423.79991,748.53567 C 424.90294,747.94534 428.34275,744.32195 431.44392,740.48369 C 434.5451,736.64543 437.70673,733.50504 438.46978,733.50504 C 439.23283,733.50504 439.85714,733.77873 439.85714,734.11325 C 439.85714,735.30108 429.95578,747.07979 424.9457,751.85199 C 422.14699,754.51781 419.85714,757.49342 419.85714,758.46445 C 419.85714,761.01673 425.14145,773.44673 429.09931,780.20431 C 433.57061,787.83855 433.79687,788.7825 434.83089,804.11711 C 435.71807,817.27414 437.56906,824.49881 440.05611,824.51187 C 444.72235,824.53638 449.45218,843.2379 446.92524,851.67207 C 446.24045,853.9577 444.79046,856.5482 443.70305,857.42873 C 442.01163,858.79836 441.88528,859.44886 442.82869,861.93022 C 443.57864,863.90272 443.60496,865.15722 442.91097,865.85121 C 441.4927,867.26948 440.52336,866.01096 440.52621,862.75504 L 440.52862,860.00504 L 431.69288,860.32601 L 422.85714,860.64698 L 422.85714,863.57601 L 422.85714,866.50504 L 414.97846,866.50504 C 407.16718,866.50504 407.08915,866.47938 405.85714,863.50504 C 404.65118,860.59359 404.41662,860.50504 397.91013,860.50504 C 392.04236,860.50504 390.91115,860.81865 388.8447,863.01828 C 384.40384,867.74536 386.02137,868.00504 419.90671,868.00504 C 441.62825,868.00504 450.85686,868.33093 450.85697,869.098 C 450.85727,871.03601 416.95906,871.92077 396.85714,870.50742 z M 419.85714,863.50504 C 419.85714,862.37432 416.80081,862.37432 412.35714,863.50504 C 409.79282,864.15755 410.11959,864.28559 414.60714,864.38673 C 417.51935,864.45236 419.85714,864.05975 419.85714,863.50504 z M 107.35714,866.8408 C 89.16817,865.73586 85.85714,865.28827 85.85714,863.9344 C 85.85714,862.87935 86.883819,862.6744 90.10714,863.08599 C 97.401152,864.01738 133.4298,865.06616 139.45894,864.5226 C 142.61635,864.23794 145.34429,863.55504 145.52102,863.00504 C 146.20934,860.86295 139.3475,857.50489 134.29526,857.51136 C 129.85977,857.51704 129.18375,857.8224 127.65365,860.51136 C 126.04284,863.34216 125.60759,863.50421 119.65365,863.48973 C 112.93855,863.4734 110.58442,862.6422 110.89883,860.39856 C 111.37929,856.9699 110.75624,856.6532 102.89703,856.33119 C 95.116602,856.0124 94.930368,856.05973 94.647026,858.42792 C 94.259155,861.66976 91.85714,862.41059 91.85714,859.28837 C 91.85714,857.97754 92.345062,856.41712 92.941411,855.82077 C 93.720438,855.04174 93.452157,854.33479 91.988437,853.30956 C 87.898103,850.44458 86.970156,844.2623 88.936026,832.97345 C 89.682473,828.68703 90.837966,825.87429 92.686026,823.84507 C 94.155139,822.23194 97.080698,817.61389 99.187268,813.58274 C 103.61123,805.117 114.11833,791.20737 121.35714,784.23355 C 124.2275,781.46827 130.26332,777.42362 135.52813,774.73748 C 140.57217,772.16397 144.50951,769.75158 144.27777,769.37662 C 143.84477,768.676 140.33506,752.52384 138.87343,744.50504 C 138.4223,742.03004 137.29613,733.48004 136.37084,725.50504 C 135.44554,717.53004 134.08241,708.98004 133.34165,706.50504 C 130.93939,698.47865 130.48566,693.50504 132.1557,693.50504 C 133.14795,693.50504 133.86295,695.05826 134.34229,698.25504 C 134.73402,700.86754 135.40972,703.68004 135.84384,704.50504 C 136.27796,705.33004 137.5915,713.88004 138.76281,723.50504 C 140.88997,740.98446 143.75622,756.61075 146.54931,765.95563 C 148.31295,771.85628 148.64449,771.48251 135.85714,778.00971 C 126.67998,782.69413 122.43872,786.51464 112.54968,799.00504 C 106.55633,806.57497 98.85714,819.04278 98.85714,821.17829 C 98.85714,822.1376 109.45869,824.50504 113.75455,824.50504 C 116.46633,824.50504 128.59419,816.05426 142.52021,804.46091 C 148.38776,799.5762 156.38605,793.99967 160.29419,792.06863 C 169.13718,787.69922 173.90672,782.86952 177.63902,774.50504 C 182.40793,763.81738 184.36627,750.70263 184.13461,731.00504 C 183.95329,715.58818 183.67497,713.15144 181.14591,704.839 L 178.35714,695.67297 L 170.6995,691.93381 L 163.04187,688.19466 L 154.6995,689.79544 C 150.1112,690.67587 142.93524,691.69243 138.75291,692.05446 L 131.14867,692.7127 L 130.50291,689.48387 C 130.14774,687.70801 129.85714,684.48034 129.85714,682.31126 C 129.85714,677.43038 134.1068,660.39352 136.9544,653.85839 C 138.11753,651.18905 142.35686,639.33004 146.37513,627.50504 C 150.39339,615.68004 156.43282,598.35504 159.79608,589.00504 C 165.41294,573.38997 166.29587,571.63 170.63412,567.40145 C 173.92985,564.18905 177.97824,561.69591 184.03057,559.15145 C 188.80096,557.14592 193.11315,555.50504 193.61321,555.50504 C 194.83404,555.50504 200.11519,562.16016 202.34222,566.50504 C 204.72628,571.15627 205.76335,571.67033 208.19408,569.40576 C 210.74649,567.02783 212.25088,567.04698 217.71634,569.527 C 223.27603,572.04977 223.85714,572.01328 223.85714,569.1414 C 223.85714,564.47778 232.79867,558.82963 234.08282,562.68209 C 234.80442,564.84689 236.77292,562.47711 237.37403,558.71996 C 237.70092,556.67675 238.71792,553.43004 239.63402,551.50504 C 240.55012,549.58004 241.5376,547.23103 241.8284,546.28502 C 242.19018,545.10815 242.79602,544.8383 243.74697,545.43046 C 244.90436,546.15117 244.79578,547.02415 243.09766,550.65047 C 241.97614,553.04548 240.51006,557.40206 239.83969,560.33176 C 238.50123,566.18126 237.0243,567.35786 233.20471,565.61754 C 230.99519,564.61082 230.61387,564.7193 230.15185,566.48608 C 229.86146,567.59651 229.10002,568.50504 228.45975,568.50504 C 227.81947,568.50504 226.78605,569.85504 226.16324,571.50504 C 224.81685,575.07205 222.83386,575.29723 217.35714,572.50504 C 212.64635,570.10334 211.49517,570.03133 209.83281,572.03436 C 208.78496,573.29694 208.91732,573.95098 210.59176,575.78436 C 214.47154,580.03242 231.85714,610.32155 231.85714,612.83282 C 231.85714,613.77612 218.7597,618.51297 213.66826,619.41106 C 210.53938,619.96297 205.20499,621.81505 201.81406,623.52679 C 198.42312,625.23853 195.13312,626.44027 194.50293,626.19733 C 190.64118,624.70861 178.0229,598.00595 180.16766,595.86119 C 181.23233,594.79651 181.76733,595.7227 184.8304,603.93336 C 186.39753,608.13411 189.39102,614.21405 191.48259,617.44435 L 195.28546,623.31762 L 200.85805,620.50458 C 203.92298,618.95741 208.66411,617.36586 211.39389,616.96781 C 217.03399,616.14538 226.52249,612.85553 227.41377,611.41342 C 228.68654,609.35403 210.57816,579.14066 206.08455,575.82618 C 204.45986,574.6278 201.8844,571.4778 200.36131,568.82618 C 198.83822,566.17455 196.47859,562.8052 195.11769,561.33873 L 192.64332,558.67242 L 184.50023,562.1376 C 171.59616,567.62874 169.75876,570.01181 162.11658,591.16863 C 158.57304,600.97865 152.61132,618.00504 148.8683,629.00504 C 145.12529,640.00504 141.1126,651.18905 139.95122,653.85839 C 136.73568,661.24905 132.85714,677.69349 132.85714,683.93626 L 132.85714,689.50504 L 137.60714,689.50582 C 140.21964,689.50625 147.11112,688.55978 152.92153,687.40257 L 163.48593,685.29853 L 172.65155,689.90179 C 184.22919,695.71643 186.98174,695.86219 188.76404,690.75504 C 189.48381,688.69254 192.16171,683.41459 194.71493,679.02627 C 197.26814,674.63794 200.6077,667.66294 202.13617,663.52627 C 205.09131,655.5284 210.85714,631.99611 210.85714,627.93305 C 210.85714,626.59765 211.30714,625.50504 211.85714,625.50504 C 213.68883,625.50504 212.88996,634.24002 209.91954,646.69133 C 206.27151,661.98299 202.91076,670.98356 197.48045,680.00504 C 195.16301,683.85504 192.47609,689.10698 191.5095,691.67602 C 189.90811,695.9323 189.39551,696.40724 185.73581,697.02554 C 183.33894,697.43049 181.89016,698.16797 182.14269,698.85456 C 184.81211,706.11244 185.90343,712.30831 186.72635,724.87793 C 187.26189,733.05802 187.46798,740.35561 187.18432,741.0948 C 186.62512,742.55205 190.70212,746.64785 195.10714,749.05417 C 197.3708,750.29073 197.85714,751.23725 197.85714,754.40629 C 197.85714,758.76368 193.9653,768.34383 191.30092,770.54506 C 186.2461,774.72121 181.85759,791.96522 181.85731,807.65239 L 181.85714,817.29973 L 188.18905,818.40239 C 191.67161,819.00885 195.00007,819.50504 195.58564,819.50504 C 196.17121,819.50504 199.20613,813.09254 202.32991,805.25504 C 210.80695,783.9863 216.86551,770.60827 220.60871,764.89321 C 225.61057,757.25646 227.93824,748.64755 226.83461,741.8666 C 225.53913,733.9069 209.97514,707.03656 202.14575,699.2427 C 198.96202,696.07341 195.57804,692.92341 194.6258,692.2427 C 193.55938,691.48036 193.20286,690.51711 193.69748,689.73455 C 194.30363,688.77554 195.47856,689.17257 198.49,691.35404 C 204.96079,696.04146 210.97662,704.04472 220.17892,720.20822 C 228.064,734.05809 228.88986,736.01643 229.45665,742.20822 C 230.20329,750.36467 228.08693,758.81577 223.69168,765.22907 C 217.98897,773.5501 199.61432,817.68937 200.45639,821.04446 C 201.502,825.21052 216.51757,836.50504 221.01054,836.50504 C 224.2631,836.50504 225.96144,837.78915 228.00391,841.79273 C 229.33367,844.39928 229.88684,846.93459 229.56223,848.93492 C 229.21594,851.06885 229.65129,852.76755 230.95806,854.38134 C 232.00255,855.67124 232.85714,857.56092 232.85714,858.58064 C 232.85714,862.4745 229.73903,862.84264 202.38747,862.17806 C 175.70729,861.5298 168.85714,860.94385 168.85714,859.30997 C 168.85714,858.73648 175.89395,858.69054 187.10714,859.19082 C 209.9573,860.21028 228.46258,860.23662 229.44601,859.2511 C 229.8598,858.83643 229.14314,857.37393 227.85344,856.0011 C 225.83085,853.84816 224.63601,853.50504 219.16139,853.50504 C 213.33564,853.50504 212.71924,853.71359 211.65748,856.0439 C 210.54801,858.47893 210.19107,858.57094 202.92892,858.2939 C 195.71805,858.01881 195.36873,857.89649 195.6002,855.72765 C 195.91557,852.77278 192.67067,851.50504 184.79204,851.50504 C 179.12815,851.50504 178.85714,851.6192 178.85714,854.00504 C 178.85714,855.5606 178.29047,856.50504 177.35714,856.50504 C 175.51852,856.50504 175.29888,851.86954 177.10714,851.22874 C 177.9327,850.93618 177.46172,849.94098 175.72007,848.29781 C 172.3627,845.13029 171.46863,840.97419 172.35206,832.64167 C 173.13485,825.25837 174.71452,820.69571 177.20224,818.6326 C 178.51909,817.5405 178.85714,815.41157 178.85714,808.21053 C 178.85714,792.02193 182.92219,775.70398 188.49926,769.50504 C 190.91827,766.8163 195.85714,756.39301 195.85714,753.97653 C 195.85714,753.16721 195.4228,752.50504 194.89194,752.50504 C 194.36107,752.50504 192.37463,751.14228 190.47762,749.47668 L 187.02851,746.44832 L 186.49756,749.22668 C 186.20554,750.75478 185.44626,755.38004 184.81028,759.50504 C 183.01376,771.15736 178.65792,781.07737 172.65702,787.18293 C 169.858,790.03077 166.45034,792.64131 165.08445,792.98413 C 161.39772,793.90944 153.49055,799.25985 143.28045,807.73789 C 138.28828,811.88318 130.33179,818.02659 125.59937,821.38991 L 116.99497,827.50504 L 109.83035,827.50504 C 104.80959,827.50504 101.7734,826.98139 99.683651,825.75504 C 96.726357,824.01958 96.681452,824.02835 94.279359,826.8108 C 92.947139,828.35397 91.824289,830.37897 91.784137,831.3108 C 91.743985,832.24263 91.348502,835.48004 90.905286,838.50504 C 90.3502,842.29356 90.485558,844.93857 91.340273,847.00504 C 93.862829,853.10389 94.529787,853.29549 117.9216,854.64092 C 129.75734,855.32167 140.20973,855.58372 141.14913,855.22323 C 143.26423,854.41159 143.33822,851.33603 141.33581,847.46379 C 140.16957,845.20853 138.89602,844.37499 135.87956,843.89263 C 133.71536,843.54656 129.67496,841.76865 126.90089,839.94171 C 123.42711,837.65395 121.85714,837.06309 121.85714,838.04347 C 121.85714,838.82638 120.77791,839.73781 119.45885,840.06887 C 113.25874,841.625 109.69935,838.33302 113.79258,834.82829 C 114.92809,833.85604 115.85714,832.03557 115.85714,830.7828 C 115.85714,828.85824 116.38534,828.50504 119.26352,828.50504 C 122.08331,828.50504 122.58674,828.82305 122.18698,830.35174 C 121.32738,833.63884 132.82603,841.42687 138.62184,841.48308 C 141.77499,841.51366 144.84869,846.87241 144.8534,852.34731 C 144.85583,855.17089 145.55663,857.57884 146.85714,859.23217 C 149.59967,862.71873 149.39594,865.34969 146.29204,866.52979 C 143.9751,867.41069 119.90356,867.60297 107.35714,866.8408 z M 122.62505,859.79051 C 121.1224,859.56234 118.4224,859.55775 116.62505,859.78031 C 114.8277,860.00287 116.05714,860.18956 119.35714,860.19517 C 122.65714,860.20078 124.1277,860.01869 122.62505,859.79051 z M 203.60714,854.81571 C 202.64464,854.56419 201.06964,854.56419 200.10714,854.81571 C 199.14464,855.06724 199.93214,855.27304 201.85714,855.27304 C 203.78214,855.27304 204.56964,855.06724 203.60714,854.81571 z M 226.85714,848.47292 C 226.85714,847.35526 226.22463,844.92699 225.45156,843.07677 C 224.25719,840.21824 223.39386,839.60257 219.70621,838.97954 C 213.31174,837.8992 201.04996,829.06745 199.66401,824.5438 C 199.36497,823.56778 196.0851,822.5285 189.78673,821.41401 C 178.67086,819.44709 177.64233,819.88799 175.96792,827.33771 C 173.68584,837.49101 174.49298,843.93072 178.40749,846.80176 C 181.1448,848.80939 194.57901,850.11273 215.10714,850.36223 C 226.29923,850.49826 226.85714,850.40855 226.85714,848.47292 z M 118.85714,835.8826 C 118.85714,834.5538 118.58565,834.48547 117.35714,835.50504 C 115.46841,837.07255 115.46841,837.50504 117.35714,837.50504 C 118.18214,837.50504 118.85714,836.77494 118.85714,835.8826 z M 220.10714,833.77176 C 217.9971,833.04019 218.6185,829.50504 220.85714,829.50504 C 222.88433,829.50504 223.43121,831.09962 222.09183,833.1051 C 221.68775,833.71013 220.79464,834.01013 220.10714,833.77176 z M 429.46333,679.67686 C 429.18182,679.22136 430.06961,677.2772 431.4362,675.35651 L 433.92092,671.86434 L 430.90371,664.77401 C 429.24425,660.87432 425.91424,652.13098 423.5037,645.34436 C 421.09315,638.55773 417.48874,629.85504 415.4939,626.00504 C 411.62389,618.53603 411.11166,616.49929 413.10714,616.51469 C 414.6674,616.52673 422.59013,633.65361 427.30149,647.1992 C 429.25162,652.80598 431.90165,659.78098 433.19045,662.6992 L 435.53373,668.00504 L 436.25443,662.00504 C 436.65082,658.70504 437.90466,653.70705 439.04074,650.89839 C 441.22041,645.50972 441.1808,645.53347 454.10714,641.86668 C 455.22241,641.55032 455.85714,641.91999 455.85714,642.88591 C 455.85714,643.88824 453.78077,644.98416 449.72639,646.12176 C 444.02913,647.72033 443.46013,648.14831 441.67916,652.17449 C 440.62509,654.55738 439.49215,658.79121 439.1615,661.58301 C 438.83085,664.3748 438.06195,667.18686 437.45283,667.83202 C 436.84372,668.47718 436.28473,670.21644 436.21064,671.69703 C 436.07186,674.47043 432.39781,680.50504 430.84806,680.50504 C 430.36797,680.50504 429.74484,680.13236 429.46333,679.67686 z M 305.85714,658.50504 C 304.48214,658.06469 288.95714,657.66177 271.35714,657.60967 C 230.55625,657.48888 232.15428,657.9301 223.84948,644.49264 C 217.231,633.78372 212.52484,623.85173 213.39889,622.43749 C 214.54935,620.576 215.62082,621.59772 217.39785,626.25081 C 219.39045,631.46835 230.09356,649.65922 232.09742,651.23399 C 232.79026,651.77849 235.48034,653.01789 238.07537,653.98823 C 242.37472,655.59586 245.43755,655.68578 272.57537,655.00112 C 291.53653,654.52275 301.50564,653.93192 300.01353,653.37499 L 297.66992,652.50023 L 300.37664,647.88156 C 301.99984,645.11176 302.68316,643.01112 302.08363,642.63396 C 301.53378,642.28806 301.19405,640.09254 301.32867,637.75504 C 301.64501,632.26221 300.568,632.35515 298.40957,638.00693 C 297.14762,641.3113 295.98097,642.70781 294.02371,643.25693 C 289.20627,644.60847 271.55649,644.03954 260.85714,642.18782 C 238.22021,638.27009 239.9505,638.90891 237.78346,633.66912 C 236.72253,631.10388 234.26709,626.00214 232.32692,622.33192 C 229.9956,617.92176 229.17082,615.42921 229.89477,614.98178 C 231.39356,614.05548 231.38352,614.04086 237.25292,625.68553 L 242.45439,636.00504 L 248.90576,637.15717 C 272.13792,641.3061 275.92381,641.74649 284.73671,641.32514 C 291.3387,641.0095 294.26509,640.46802 294.90597,639.4435 C 295.40086,638.65235 296.592,634.96754 297.55295,631.25504 C 299.06643,625.40788 299.60488,624.50504 301.57863,624.50504 C 302.83181,624.50504 303.85714,624.05504 303.85714,623.50504 C 303.85714,622.95504 304.53214,622.50504 305.35714,622.50504 C 306.18214,622.50504 306.85714,621.65318 306.85714,620.61203 C 306.85714,618.91995 308.65253,617.50504 310.79964,617.50504 C 311.22804,617.50504 311.8505,619.80114 312.18287,622.60749 C 313.23851,631.52074 320.62552,641.29619 325.26427,639.9185 C 332.32278,637.82214 350.87595,628.84836 354.7563,625.65382 C 357.28676,623.5706 360.93214,621.26645 362.85714,620.53349 C 374.14608,616.23516 380.5644,610.14875 391.85714,593.03318 C 397.2782,584.81687 403.93531,576.41638 408.64075,571.85421 C 412.67213,567.94558 414.14127,567.04301 422.85714,563.12043 C 424.78214,562.25408 427.12306,560.98962 428.05918,560.31051 C 428.9953,559.63141 430.08457,559.39914 430.47979,559.79435 C 431.65894,560.97351 427.17811,564.99196 423.12897,566.38664 C 417.25817,568.40877 409.31539,574.21419 406.40732,578.60857 C 404.95422,580.80436 402.2723,584.26685 400.4475,586.30298 C 398.6227,588.33911 396.43942,591.35504 395.59576,593.00504 C 394.7521,594.65504 391.5531,599.06474 388.48688,602.80438 C 385.42065,606.54401 382.18457,610.81901 381.29557,612.30438 C 379.44843,615.39067 372.67881,619.81619 365.44088,622.66912 C 362.71748,623.74258 358.89859,626.01749 356.95444,627.72447 C 352.98515,631.20955 333.94641,640.43327 326.46442,642.49599 L 321.57171,643.84488 L 317.17151,639.18775 L 312.77131,634.53062 L 313.35502,638.26783 L 313.93872,642.00504 L 311.45607,637.50504 L 308.97341,633.00504 L 309.58146,637.00504 C 310.15784,640.79672 310.09351,640.92692 308.34625,639.50504 C 306.70503,638.16946 306.60461,638.17097 307.43007,639.51879 C 310.69671,644.85263 313.49512,648.4841 314.35714,648.50797 C 316.22744,648.55977 318.11576,650.27757 317.46315,651.33351 C 316.29116,653.22984 311.02842,650.51825 308.76127,646.84993 L 306.61162,643.37171 L 304.30342,647.18838 C 302.21345,650.64419 302.15415,651.0691 303.67618,651.68264 C 304.60071,652.05532 306.81964,652.11774 308.60714,651.82135 C 312.39509,651.19326 312.8517,652.56732 309.60714,654.83062 C 307.43818,656.34361 307.5486,656.40203 312.67288,656.45259 C 315.59654,656.48144 318.74654,656.11842 319.67288,655.64589 C 322.98899,653.95433 327.85714,653.47938 327.85714,654.84742 C 327.85714,657.94992 312.23417,660.54732 305.85714,658.50504 z M 329.31602,653.43851 C 328.95349,652.85192 328.81443,652.24509 329.007,652.09001 C 329.70106,651.53107 359.38997,643.49048 360.73316,643.49767 C 364.18723,643.51617 380.95033,635.76664 386.35714,631.65179 C 394.94355,625.11711 415.94286,605.11156 421.99614,597.69935 C 425.46173,593.45577 427.47592,591.72382 428.15533,592.40323 C 428.83474,593.08264 428.23401,594.6542 426.31836,597.20891 C 421.58129,603.52627 396.67518,627.70929 389.19457,633.25489 C 381.12647,639.23602 368.77197,644.60758 357.60714,646.98865 C 348.70596,648.88697 347.41022,649.88309 355.10714,648.91059 C 365.33581,647.61819 381.99141,641.85396 390.76675,636.56938 C 395.39204,633.78399 399.47825,631.50504 399.84723,631.50504 C 400.21621,631.50504 401.93583,629.59254 403.66861,627.25504 C 409.65261,619.1827 409.79587,619.04377 410.94772,620.19562 C 412.85935,622.10725 403.25644,633.26502 396.8616,636.56252 C 393.83415,638.12363 390.00714,640.3323 388.35714,641.47069 C 380.4452,646.9294 346.85714,654.55117 346.85714,650.88783 C 346.85714,650.1022 344.3791,650.50438 339.31904,652.11125 C 330.74417,654.83428 330.22152,654.90363 329.31602,653.43851 z M 364.85714,638.13825 C 364.85714,636.63752 372.41036,634.72492 373.60786,635.92242 C 374.64846,636.96303 372.54181,638.22963 368.60714,638.92906 C 365.68425,639.44864 364.85714,639.27422 364.85714,638.13825 z M 427.85714,606.57243 C 427.85714,605.54501 429.52399,604.93585 434.97102,603.9726 C 437.64406,603.49991 440.23995,601.66364 444.94213,596.91929 C 448.43861,593.39145 451.64986,590.50504 452.07825,590.50504 C 454.05689,590.50504 452.29498,593.5127 446.977,599.21312 C 442.38372,604.13672 440.2721,605.63173 436.77128,606.43868 C 431.20215,607.72238 427.85714,607.77257 427.85714,606.57243 z M 436.85714,597.12748 C 436.85714,596.36983 437.56203,595.16492 438.42356,594.44992 C 439.28509,593.73491 442.01493,590.01965 444.48987,586.19378 C 447.72152,581.19816 449.29519,579.54309 450.07347,580.32137 C 451.65371,581.90161 440.58094,598.50504 437.94685,598.50504 C 437.34751,598.50504 436.85714,597.88514 436.85714,597.12748 z M 410.62183,560.97798 C 406.98945,557.60075 405.37937,557.09172 399.55678,557.47973 C 396.45119,557.68668 393.85714,556.02521 393.85714,553.82917 C 393.85714,551.41577 388.48984,545.5051 386.29827,545.50507 C 385.16589,545.50505 383.43723,544.91848 382.4568,544.20158 C 380.64708,542.87828 380.75408,541.64539 383.49718,532.21366 C 383.84163,531.02931 382.84408,529.33502 380.55332,527.21366 C 377.70408,524.57512 377.23986,523.60528 377.94058,521.75504 C 379.07096,518.77027 380.85714,518.88211 380.85714,521.93765 C 380.85714,523.49201 381.57921,524.59944 382.85714,525.00504 C 383.95714,525.35417 384.85714,526.03838 384.85714,526.52551 C 384.85714,527.01264 386.48793,528.18506 388.48111,529.13089 C 391.86054,530.73454 391.98056,530.94162 390.2598,532.19987 C 389.2449,532.94199 387.88336,533.34534 387.23416,533.09622 C 386.52808,532.82527 385.78981,534.05039 385.39683,536.14517 C 385.0355,538.07121 384.49311,540.29011 384.19152,541.07605 C 383.8286,542.02181 384.32099,542.50504 385.6476,542.50504 C 387.25968,542.50504 387.62317,541.88973 387.50459,539.36159 C 387.42331,537.62889 387.91813,536.02073 388.60714,535.77826 C 389.3479,535.51758 389.85714,536.1871 389.85714,537.42171 C 389.85714,538.56754 390.44795,539.50504 391.17005,539.50504 C 393.10709,539.50504 398.18698,545.16233 397.39728,546.44009 C 397.0242,547.04376 396.33113,547.29798 395.85714,547.00504 C 395.38315,546.7121 394.71268,546.92976 394.36722,547.48873 C 394.02176,548.0477 394.17991,548.50504 394.71867,548.50504 C 395.25743,548.50504 395.99474,549.85504 396.35714,551.50504 C 396.98246,554.35209 397.27179,554.50504 402.03222,554.50504 C 405.60911,554.50504 407.95348,555.14435 410.20277,556.73315 C 414.02703,559.43444 416.84044,562.72305 416.20572,563.75004 C 415.41317,565.03241 414.48921,564.57372 410.62183,560.97798 z M 393.36046,544.51042 C 393.02237,543.96338 391.75832,542.9979 390.55145,542.36491 C 388.37238,541.22201 388.37037,541.22892 390.26213,543.35953 C 392.17064,545.50901 394.51607,546.38023 393.36046,544.51042 z M 230.01558,556.38714 C 229.10013,554.92127 229.01303,553.94915 229.73266,553.22952 C 231.11685,551.84533 233.85714,554.10292 233.85714,556.62748 C 233.85714,559.14782 231.65356,559.00996 230.01558,556.38714 z M 233.01947,552.64583 C 231.83019,551.61437 230.85714,550.26073 230.85714,549.63775 C 230.85714,548.10165 235.06058,548.2021 237.23228,549.79008 C 238.90038,551.00983 238.89293,551.16267 237.08574,552.79816 C 235.28103,554.4314 235.0691,554.42346 233.01947,552.64583 z M 429.29446,551.02263 C 428.58446,547.23801 429.25356,545.48902 430.80593,547.07171 C 432.23402,548.5277 432.49602,553.74645 431.1645,554.21436 C 430.45106,554.46507 429.69968,553.18263 429.29446,551.02263 z M 196.10714,552.01417 C 193.13557,550.7226 192.85714,550.21848 192.85714,546.12968 L 192.85714,541.65777 L 188.45837,541.828 C 182.94784,542.04127 179.8226,539.57445 179.93464,535.10005 C 180.05959,530.11042 183.28297,522.27626 186.06591,520.19849 C 189.70982,517.47792 196.94478,516.24391 198.7764,518.03057 C 199.98926,519.21366 200.65183,519.01448 203.33232,516.66097 C 205.18031,515.03842 209.29704,513.14143 213.35254,512.04366 L 220.2361,510.18037 L 227.17061,512.54121 C 240.10574,516.94496 245.29507,522.83409 246.51364,534.49274 C 247.05343,539.65717 246.91043,540.50504 245.4996,540.50504 C 244.24085,540.50504 243.84689,539.51217 243.81325,536.25504 C 243.76119,531.21434 241.76898,525.18415 239.20222,522.29794 C 237.04263,519.86958 226.71612,514.76055 222.28141,513.92639 C 217.03438,512.93943 208.22725,516.18406 203.27604,520.92816 C 197.3942,526.56395 197.5196,528.06995 203.94165,528.92186 C 206.73812,529.29283 211.39688,530.48335 214.29444,531.56746 C 220.61655,533.93287 227.55681,539.56393 226.41903,541.4049 C 225.8366,542.3473 224.96576,542.02627 222.99745,540.14357 C 219.05615,536.37371 209.48997,532.37277 203.01344,531.7855 C 197.56032,531.29102 197.22898,531.39352 196.07206,533.93269 C 195.40385,535.39924 194.85714,538.82797 194.85714,541.55209 C 194.85714,547.22409 197.23917,550.50504 201.35714,550.50504 C 202.9127,550.50504 203.85714,551.07171 203.85714,552.00504 C 203.85714,553.89299 200.43909,553.89702 196.10714,552.01417 z M 190.40613,538.73973 C 190.98307,538.33565 192.4211,535.44144 193.60175,532.30816 L 195.74838,526.61128 L 191.25944,525.93812 C 188.58716,525.53739 186.92743,524.80767 187.15828,524.135 C 187.65194,522.6965 195.09174,523.2997 196.09183,524.85931 C 196.49591,525.48946 196.83341,524.49376 196.84183,522.64663 C 196.85582,519.57721 196.64581,519.34126 194.40124,519.90462 C 188.52162,521.38031 186.70575,522.62312 185.2145,526.19219 C 182.57315,532.51383 182.29133,536.61814 184.39309,538.15499 C 186.42688,539.64213 188.78962,539.87189 190.40613,538.73973 z M 184.93103,533.09407 C 184.28697,532.31803 184.12194,531.45942 184.56428,531.18604 C 186.06642,530.25766 190.85714,531.73121 190.85714,533.12162 C 190.85714,534.94014 186.44611,534.91964 184.93103,533.09407 z M 211.85714,546.05209 C 211.85714,544.88972 214.25859,540.50504 214.89521,540.50504 C 215.28958,540.50504 216.21286,541.22874 216.94695,542.11325 C 218.08096,543.47965 217.99545,543.93073 216.37826,545.11325 C 214.55753,546.44461 211.85714,547.00536 211.85714,546.05209 z M 429.36207,543.51301 C 428.96911,542.8772 429.62932,541.31199 430.8292,540.03478 C 432.62717,538.12093 432.90917,536.94696 432.43282,533.3588 C 432.11493,530.96423 432.22094,527.43004 432.66839,525.50504 C 433.36129,522.52412 433.08132,521.48596 430.78063,518.50504 C 429.29491,516.58004 427.34266,512.75504 426.44231,510.00504 C 425.12108,505.96952 423.88621,504.38201 420.04057,501.77517 C 417.41996,499.99874 413.52805,497.9402 411.39187,497.20064 C 407.71156,495.92648 407.00586,496.05202 397.93253,499.59502 C 389.44678,502.90858 387.97159,503.86292 384.96906,507.98147 C 382.63171,511.18761 381.25967,512.30758 380.54491,511.59281 C 379.83015,510.87805 380.52537,509.0671 382.78666,505.75335 C 385.7147,501.46252 386.92408,500.63276 394.11992,497.97749 C 398.55042,496.34264 403.23921,494.577 404.53945,494.05384 C 408.01155,492.65682 414.99557,494.84544 421.79075,499.45995 C 426.73875,502.82007 427.7501,504.05108 428.88093,508.08999 C 429.60636,510.68098 431.60681,514.64681 433.32638,516.90296 C 436.15102,520.60901 436.36905,521.39122 435.5847,525.00504 C 435.10722,527.20504 434.89679,531.35654 435.11709,534.23059 C 435.4735,538.88044 435.21791,539.74328 432.79708,542.06258 C 430.93926,543.84248 429.84996,544.30244 429.36207,543.51301 z M 200.49166,540.90266 C 197.80441,539.07662 196.97676,537.98542 197.71733,537.24485 C 198.96133,536.00085 205.83928,540.2379 205.85031,542.25504 C 205.86031,544.08508 204.77012,543.80994 200.49166,540.90266 z M 415.53453,541.13542 C 414.68058,539.83213 413.54441,537.24464 413.00971,535.38542 C 412.475,533.52621 411.99693,532.79254 411.94733,533.75504 C 411.88672,534.93099 411.03707,535.50504 409.35714,535.50504 C 407.35714,535.50504 406.85714,535.00504 406.85714,533.00504 C 406.85714,530.38987 408.32689,529.60399 409.19486,531.75504 C 409.47227,532.44254 409.73477,532.08254 409.77819,530.95504 C 409.82161,529.82754 409.29464,528.30879 408.60714,527.58004 C 407.60714,526.52004 407.60714,526.16337 408.60714,525.79671 C 409.29464,525.54462 409.85714,524.518 409.85714,523.51533 C 409.85714,522.12822 410.39518,521.82399 412.10714,522.24309 C 413.34464,522.54604 414.91469,523.2299 415.59613,523.76278 C 417.16623,524.99058 416.11949,526.81969 414.25599,526.1046 C 413.33236,525.75017 412.85714,526.27819 412.85714,527.65887 C 412.85714,529.34557 413.12999,529.52349 414.26811,528.57893 C 416.16805,527.00212 417.27072,528.86374 415.92557,531.37717 C 415.13623,532.85208 415.46942,534.3587 417.37933,537.95075 C 420.26863,543.38478 420.29229,543.50504 418.47215,543.50504 C 417.71041,543.50504 416.38848,542.43871 415.53453,541.13542 z M 420.36668,537.31495 C 419.9517,534.4804 420.26997,531.50715 421.29642,528.62931 C 422.15482,526.22266 422.85714,524.13395 422.85714,523.98772 C 422.85714,523.8415 421.79202,523.45453 420.49021,523.12779 C 419.18839,522.80106 415.88458,520.99378 413.14841,519.11163 C 410.41223,517.22947 404.95235,514.06736 401.01534,512.08471 C 394.21331,508.65926 392.03841,506.50504 395.3821,506.50504 C 397.48015,506.50504 409.90257,512.84965 413.45326,515.73468 C 415.05039,517.03239 418.38214,518.9444 420.85714,519.98359 C 423.33214,521.02278 425.7047,522.16028 426.12949,522.51138 C 426.55429,522.86248 425.9633,525.27148 424.81619,527.86471 C 423.50137,530.83709 422.84633,534.09917 423.04384,536.69099 C 423.47982,542.41221 421.19102,542.94566 420.36668,537.31495 z M 203.04736,536.32728 C 200.45971,535.74873 198.90542,534.89246 199.1576,534.18437 C 199.91112,532.06858 208.85714,533.76539 208.85714,536.02409 C 208.85714,537.67224 209.02401,537.66353 203.04736,536.32728 z M 227.35714,533.94645 C 224.05714,532.11721 218.54464,529.81269 215.10714,528.82529 C 211.66964,527.83789 208.85714,526.4619 208.85714,525.76753 C 208.85714,525.07316 209.19464,524.50755 209.60714,524.51062 C 214.38187,524.54612 235.85714,534.08544 235.85714,536.17087 C 235.85714,538.13039 234.05364,537.65842 227.35714,533.94645 z M 236.92191,532.31789 C 233.82457,528.40494 226.48101,524.97955 216.60714,522.84211 C 212.34464,521.91939 208.85714,520.79107 208.85714,520.33474 C 208.85714,517.38135 228.76189,522.18789 235.51221,526.77134 C 238.29217,528.65892 241.85714,533.23135 241.85714,534.90933 C 241.85714,536.51088 239.09134,535.05859 236.92191,532.31789 z M 427.33503,529.75504 C 428.14616,525.41267 428.5598,524.78608 429.76655,526.07171 C 431.1535,527.5493 429.84415,533.50504 428.13235,533.50504 C 426.94371,533.50504 426.77914,532.73103 427.33503,529.75504 z M 375.67263,529.25007 C 374.19614,528.01531 372.51018,525.20504 371.92604,523.00504 C 370.81269,518.81189 371.20332,518.09367 376.04645,515.42906 C 378.70694,513.96531 379.60415,516.59708 377.02783,518.3077 C 373.21693,520.83804 374.59414,525.68837 379.93512,528.54677 C 380.99223,529.11252 381.85714,530.00958 381.85714,530.54022 C 381.85714,532.26596 378.42201,531.54936 375.67263,529.25007 z M 398.35714,528.37 C 392.03981,524.97689 382.92418,518.038 383.728,517.23418 C 384.80888,516.1533 387.8169,517.58746 393.01894,521.66391 C 395.03293,523.24212 398.31357,525.21563 400.30925,526.04948 C 402.30494,526.88333 403.66807,528.00195 403.33844,528.5353 C 402.56957,529.77935 400.87648,529.72317 398.35714,528.37 z M 399.10613,519.25504 C 392.73561,515.72943 388.37119,511.59099 389.66214,510.30005 C 390.45191,509.51027 391.77039,510.0997 394.4223,512.4281 C 396.4396,514.19932 399.6127,516.37457 401.47363,517.26198 C 403.33456,518.1494 404.85714,519.46712 404.85714,520.19025 C 404.85714,522.02052 403.78939,521.84688 399.10613,519.25504 z M 422.85714,516.68715 C 422.85714,515.06748 416.04273,511.45066 415.5792,512.82431 C 414.97912,514.60267 403.05514,508.59185 400.74379,505.34585 C 399.45916,503.54176 399.18094,502.42295 399.90557,501.97511 C 400.50212,501.60642 401.25636,501.57093 401.58166,501.89623 C 401.90696,502.22153 402.71041,502.04178 403.3671,501.49678 C 405.23119,499.94971 410.82795,502.27622 415.35714,506.48091 C 417.55714,508.52328 420.84169,511.21057 422.65614,512.45267 C 425.88712,514.66445 426.41175,516.48684 424.04464,517.27587 C 423.39152,517.49358 422.85714,517.22866 422.85714,516.68715 z M 412.72958,507.85014 C 411.30499,506.13235 405.83866,503.50504 403.68926,503.50504 C 401.748,503.50504 404.15397,505.51557 408.54961,507.56656 C 413.42372,509.84081 414.43753,509.90958 412.72958,507.85014 z "
       id="path2239" />
  </g>
</svg>
